# xmcd
# 
# Track frame offsets:
#     150
#     14292
#     38685
#     57325
# 
# Disc length: 923
# 
# Revision: 0
# Processed by: cddbd v1.5.2PL0 Copyright (c) Steve Scherf et al.
# Submitted via: fre:ac v1.0.31
# 
DISCID=28039904
DTITLE=The Cruel Sea - The Honeymoon Is Over CDEp
DYEAR=1993
DGENRE=Alternative Rock
TTITLE0=The Honeymoon Is Over
TTITLE1=Delivery Man
TTITLE2=Blue Dog
TTITLE3=She Still Comes Around
EXTD=@ MEGA
EXTT0=
EXTT1=
EXTT2=
EXTT3=
PLAYORDER=
